<mxfile host="65bd71144e" modified="2020-11-21T08:41:20.583Z" agent="5.0 (Macintosh; Intel Mac OS X 10_15_7) AppleWebKit/537.36 (KHTML, like Gecko) Code/1.51.1 Chrome/83.0.4103.122 Electron/9.3.3 Safari/537.36" version="13.6.5" etag="exUvunbxsoCR7Ip-662x">
    <diagram id="lPJRmNO3xeTpMd9eUwWt" name="ページ1">
        <mxGraphModel dx="1110" dy="586" grid="1" gridSize="10" guides="1" tooltips="1" connect="1" arrows="1" fold="1" page="1" pageScale="1" pageWidth="827" pageHeight="1169" math="0" shadow="0">
            <root>
                <mxCell id="0"/>
                <mxCell id="1" parent="0"/>
                <mxCell id="3" value="検索ページ" style="whiteSpace=wrap;html=1;" vertex="1" parent="1">
                    <mxGeometry x="260" y="120" width="120" height="60" as="geometry"/>
                </mxCell>
                <mxCell id="4" value="ホームページ" style="whiteSpace=wrap;html=1;" vertex="1" parent="1">
                    <mxGeometry x="40" y="120" width="120" height="60" as="geometry"/>
                </mxCell>
                <mxCell id="5" value="ランキングページ" style="whiteSpace=wrap;html=1;" vertex="1" parent="1">
                    <mxGeometry x="40" y="320" width="120" height="60" as="geometry"/>
                </mxCell>
                <mxCell id="7" value="ホーム" style="whiteSpace=wrap;html=1;" vertex="1" parent="1">
                    <mxGeometry x="230" y="35" width="120" height="30" as="geometry"/>
                </mxCell>
                <mxCell id="8" value="検索" style="whiteSpace=wrap;html=1;" vertex="1" parent="1">
                    <mxGeometry x="360" y="35" width="120" height="30" as="geometry"/>
                </mxCell>
                <mxCell id="9" value="ランキング" style="whiteSpace=wrap;html=1;" vertex="1" parent="1">
                    <mxGeometry x="490" y="35" width="120" height="30" as="geometry"/>
                </mxCell>
                <mxCell id="10" value="ユーザー登録" style="whiteSpace=wrap;html=1;" vertex="1" parent="1">
                    <mxGeometry x="620" y="35" width="120" height="30" as="geometry"/>
                </mxCell>
                <mxCell id="11" value="ユーザーページ" style="whiteSpace=wrap;html=1;" vertex="1" parent="1">
                    <mxGeometry x="620" y="80" width="120" height="30" as="geometry"/>
                </mxCell>
                <mxCell id="12" value="ログイン" style="whiteSpace=wrap;html=1;" vertex="1" parent="1">
                    <mxGeometry x="750" y="35" width="120" height="30" as="geometry"/>
                </mxCell>
                <mxCell id="13" value="ログアウト" style="whiteSpace=wrap;html=1;" vertex="1" parent="1">
                    <mxGeometry x="750" y="80" width="120" height="30" as="geometry"/>
                </mxCell>
                <mxCell id="18" value="&lt;ol&gt;&lt;li&gt;&lt;span&gt;このアプリの使い方&lt;/span&gt;&lt;/li&gt;&lt;ol&gt;&lt;li&gt;検索機能&lt;/li&gt;&lt;li&gt;お気に入り機能&lt;/li&gt;&lt;li&gt;登録機能&lt;/li&gt;&lt;li&gt;ランキング機能&lt;/li&gt;&lt;/ol&gt;&lt;/ol&gt;" style="whiteSpace=wrap;html=1;align=left;" vertex="1" parent="1">
                    <mxGeometry y="190" width="200" height="110" as="geometry"/>
                </mxCell>
                <mxCell id="19" value="&lt;ol&gt;&lt;li&gt;ランキング機能&lt;/li&gt;&lt;ol&gt;&lt;li&gt;お気に入り数でランキング&lt;/li&gt;&lt;li&gt;絞り込み機能&lt;/li&gt;&lt;/ol&gt;&lt;/ol&gt;" style="whiteSpace=wrap;html=1;align=left;" vertex="1" parent="1">
                    <mxGeometry y="400" width="240" height="110" as="geometry"/>
                </mxCell>
                <mxCell id="20" value="&lt;ol&gt;&lt;li&gt;カクテル検索機能&lt;/li&gt;&lt;ol&gt;&lt;li&gt;検索したカクテルを表示&lt;/li&gt;&lt;/ol&gt;&lt;/ol&gt;" style="whiteSpace=wrap;html=1;align=left;" vertex="1" parent="1">
                    <mxGeometry x="230" y="190" width="230" height="110" as="geometry"/>
                </mxCell>
                <mxCell id="21" value="ユーザー機能" style="whiteSpace=wrap;html=1;" vertex="1" parent="1">
                    <mxGeometry x="300" y="320" width="120" height="60" as="geometry"/>
                </mxCell>
                <mxCell id="22" value="&lt;ol&gt;&lt;li&gt;お気にりに入れたカクテルを表示&lt;/li&gt;&lt;li&gt;登録したカクテルを表示&lt;/li&gt;&lt;/ol&gt;" style="whiteSpace=wrap;html=1;align=left;" vertex="1" parent="1">
                    <mxGeometry x="260" y="400" width="230" height="110" as="geometry"/>
                </mxCell>
            </root>
        </mxGraphModel>
    </diagram>
</mxfile>